<svg width="220" height="44" viewBox="0 0 220 44" fill="none" xmlns="http://www.w3.org/2000/svg"><path fill-rule="evenodd" clip-rule="evenodd" d="M28.76 15.927c0 9.01-6.688 15.926-15.471 15.926H1.636a1.31 1.31 0 01-1.31-1.31V1.31A1.306 1.306 0 011.635 0h11.657c8.78 0 15.468 6.916 15.468 15.927zm-7.964 0c0-4.87-3.138-8.056-7.507-8.056H8.696v16.11h4.597c4.365 0 7.503-3.185 7.503-8.055zM43.42 26.029c1.301 0 2.463-.347 3.431-1.013a1.325 1.325 0 011.521-.009l3.419 2.393c.683.478.754 1.469.144 2.038-2.226 2.064-5.246 3.055-8.695 3.055-7.871 0-12.74-5.233-12.74-11.969 0-6.828 5.005-12.061 12.105-12.061 7.235 0 11.74 5.14 11.74 11.969 0 .57-.03 1.122-.104 1.678a1.317 1.317 0 01-1.302 1.144H38.323c.907 2.183 2.91 2.774 5.097 2.774zm3.545-8.008c-.683-2.366-2.458-3.186-4.277-3.186-2.183 0-3.822 1.092-4.462 3.186h8.74zm90.909 6.995c-.968.666-2.13 1.012-3.431 1.012-2.187 0-4.186-.591-5.089-2.774h14.608c.657 0 1.214-.49 1.301-1.144.075-.556.105-1.109.105-1.678 0-6.828-4.505-11.97-11.741-11.97-7.099 0-12.104 5.233-12.104 12.062 0 6.736 4.869 11.969 12.74 11.969 3.449 0 6.469-.99 8.695-3.055.609-.57.539-1.56-.145-2.038l-3.418-2.393a1.325 1.325 0 00-1.521.009zm-4.159-10.181c1.819 0 3.594.82 4.278 3.186h-8.739c.639-2.095 2.279-3.186 4.461-3.186zM91.611 17.93v12.613c0 .723-.588 1.31-1.31 1.31h-4.975a1.31 1.31 0 01-1.31-1.31V18.797c0-1.954-.912-3.186-2.823-3.186-2.138 0-3.138 1.547-3.138 3.822v11.11a1.31 1.31 0 01-1.31 1.31h-4.93a1.31 1.31 0 01-1.311-1.31V18.797c0-1.954-.955-3.186-2.866-3.186-2.095 0-3.138 1.547-3.138 3.822v11.11a1.31 1.31 0 01-1.31 1.31h-4.931a1.31 1.31 0 01-1.31-1.31V9.874c0-.43.346-.776.775-.776h6.005c.429 0 .775.347.775.776v1.363c1.227-1.639 3.23-2.774 6.145-2.774 2.686 0 4.597 1.047 5.824 2.91 1.411-1.731 3.458-2.91 6.596-2.91 5.22 0 8.542 3.55 8.542 9.467zm27.31 12.613v-20.13c0-.722-.587-1.31-1.311-1.305h-4.93a1.31 1.31 0 00-1.31 1.31v.78c-1.455-1.726-3.546-2.73-6.46-2.73-6.097 0-10.694 5.19-10.694 12.013 0 6.824 4.597 12.013 10.694 12.013 2.91 0 5.005-1 6.46-2.73v.78c0 .723.587 1.31 1.31 1.31h4.93a1.31 1.31 0 001.311-1.31zm-12.328-15.028c2.818 0 4.777 2.003 4.777 4.962 0 2.958-1.959 4.96-4.777 4.96-2.819 0-4.778-2.002-4.778-4.96 0-2.959 1.955-4.962 4.778-4.962zm87.689-5.101v20.13a1.31 1.31 0 01-1.31 1.31h-4.93a1.311 1.311 0 01-1.311-1.31v-.78c-1.455 1.73-3.55 2.73-6.46 2.73-6.096 0-10.693-5.19-10.693-12.013 0-6.824 4.597-12.013 10.693-12.013 2.915 0 5.005 1.004 6.46 2.73v-.78c0-.723.587-1.31 1.311-1.31h4.93a1.304 1.304 0 011.31 1.306zm-7.551 10.063c0-2.959-1.959-4.962-4.777-4.962-2.822 0-4.777 2.003-4.777 4.962 0 2.958 1.959 4.96 4.777 4.96s4.777-2.002 4.777-4.96zm-27.53-12.014c-6.916 0-12.105 5.233-12.105 12.013s5.189 12.013 12.1 12.017c3.967 0 7.473-1.797 9.59-4.68.477-.654.302-1.517-.399-1.92l-4.238-2.446c-.509-.293-1.236-.166-1.635.268-.793.867-1.998 1.406-3.361 1.406-2.547 0-4.457-1.91-4.457-4.64 0-2.731 1.91-4.642 4.457-4.642 1.371 0 2.55.539 3.352 1.394a1.322 1.322 0 001.622.25l4.255-2.46c.706-.407.881-1.275.395-1.928-2.117-2.84-5.619-4.632-9.576-4.632zM220 18.249v12.294a1.31 1.31 0 01-1.31 1.31h-4.931a1.31 1.31 0 01-1.31-1.31V19.205c0-2.459-1.455-3.594-3.414-3.594-2.318 0-3.73 1.411-3.73 4.142v10.79a1.31 1.31 0 01-1.31 1.31h-4.935a1.31 1.31 0 01-1.31-1.31v-20.13c0-.723.587-1.31 1.31-1.31h4.931c.723 0 1.31.587 1.31 1.31v.964c1.275-1.818 3.502-2.914 6.324-2.914 4.689 0 8.375 3.234 8.375 9.786zM4.059 43.761h45.917c.394 0 .758-.21.96-.552l2.95-5.11a1.108 1.108 0 00-.96-1.661H1.11c-.855 0-1.385.924-.96 1.66l2.95 5.11c.2.343.565.553.959.553z" fill="#E83434"/></svg>