<?xml version="1.0" encoding="UTF-8"?>
<svg id="_圖層_1" data-name="圖層 1" xmlns="http://www.w3.org/2000/svg" xmlns:xlink="http://www.w3.org/1999/xlink" viewBox="0 0 14 12.21">
  <defs>
    <style>
    </style>
    <symbol id="_註解_-_橘色" data-name="註解 - 橘色" viewBox="0 0 14 12.21">
      <path d="M7,0c3.87,0,7,2.53,7,5.65,0,1.24-.5,2.39-1.35,3.33l1.3,3.23-5.51-1.11c-.58,.02-1.22,.16-1.87,.17-.07,0-.15,0-.22,0C2.61,11.28,0,8.71,0,5.65S3.13,0,7,0m0,1.53C3.98,1.53,1.53,3.38,1.53,5.65s2.07,4.1,4.83,4.1c.06,0,.12,0,.18,0,.26,0,.54-.04,.84-.08,.33-.04,.67-.08,1.02-.09h.17s.17,.03,.17,.03l2.73,.55-.24-.6-.36-.89,.64-.71c.43-.48,.95-1.27,.95-2.3,0-2.27-2.45-4.12-5.47-4.12h0Zm-2,4.57c0,.55-.45,1-1,1s-1-.45-1-1,.45-1,1-1,1,.45,1,1Zm3,0c0,.55-.45,1-1,1s-1-.45-1-1,.45-1,1-1,1,.45,1,1Zm3,0c0,.55-.45,1-1,1s-1-.45-1-1,.45-1,1-1,1,.45,1,1Z"/>
    </symbol>
  </defs>
  <use width="14" height="12.21" xlink:href="#_註解_-_橘色"/>
</svg>